<svg width="200" height="200" viewBox="0 0 200 200" xmlns="http://www.w3.org/2000/svg">
  <rect width="200" height="200" rx="40" fill="#4a8c3f"/>
  <ellipse cx="100" cy="115" rx="45" ry="50" fill="white"/>
  <circle cx="100" cy="75" r="35" fill="white"/>
  <ellipse cx="75" cy="55" rx="12" ry="22" fill="white" transform="rotate(-15 75 55)"/>
  <ellipse cx="125" cy="55" rx="12" ry="22" fill="white" transform="rotate(15 125 55)"/>
  <ellipse cx="75" cy="55" rx="8" ry="16" fill="#f4a0a0" transform="rotate(-15 75 55)"/>
  <ellipse cx="125" cy="55" rx="8" ry="16" fill="#f4a0a0" transform="rotate(15 125 55)"/>
  <circle cx="88" cy="72" r="5" fill="#333"/>
  <circle cx="112" cy="72" r="5" fill="#333"/>
  <circle cx="89" cy="70" r="2" fill="white"/>
  <circle cx="113" cy="70" r="2" fill="white"/>
  <ellipse cx="100" cy="88" rx="12" ry="8" fill="#f4a0a0"/>
  <circle cx="95" cy="87" r="2" fill="#d48080"/>
  <circle cx="105" cy="87" r="2" fill="#d48080"/>
  <path d="M90 95 Q100 102 110 95" stroke="#333" stroke-width="2" fill="none" stroke-linecap="round"/>
</svg>
